<svg xmlns="http://www.w3.org/2000/svg" fill="currentColor" viewBox="0 0 48 48" part="icon blz-icon"><title xmlns="http://www.w3.org/2000/svg" id="blz-icon-title-playstation">
    PlayStation
  </title><path fill-rule="evenodd" d="M28.47 14.31v10.609c4.464 2.16 7.982 0 7.982-5.706 0-5.826-2.06-8.421-8.126-10.51-2.392-.794-6.824-2.14-9.878-2.703v31.684l7.175 2.272V13.391c0-1.25.559-2.084 1.453-1.797 1.166.324 1.394 1.478 1.394 2.715m14.235 13.947c-3.002-1.13-6.824-1.518-9.942-1.178-3.123.34-5.343 1.126-5.343 1.126l-.439.144v4.316l7.666-2.703c1.318-.475 3.23-.575 4.3-.224 1.055.343.855 1.002-.446 1.486l-11.524 4.1v4.149l15.652-5.622s2.105-.783 2.975-1.86c.867-1.09.483-2.656-2.899-3.734M5.3 34.889c-3.466-.966-4.045-3.01-2.464-4.189 1.462-1.078 3.95-1.888 3.95-1.888l10.27-3.662v4.169l-7.392 2.647c-1.31.471-1.505 1.13-.45 1.474 1.073.359 2.978.263 4.288-.22l3.553-1.282v3.722l-.069.01c-.21.034-.437.07-.645.105-3.542.592-7.316.348-11.041-.886" clip-rule="evenodd"></path></svg>