<svg xmlns="http://www.w3.org/2000/svg" fill="currentColor" stroke="currentColor" stroke-linecap="round" stroke-linejoin="round" stroke-width="0" aria-labelledby="blz-icon-title-steam" viewBox="0 0 48 48" part="icon blz-icon"><title id="blz-icon-title-steam">Steam</title><path stroke="none" d="m17.28 33.312-2.211-.913a3.8 3.8 0 0 0 1.97 1.874 3.83 3.83 0 0 0 5-2.06 3.8 3.8 0 0 0 .005-2.925 3.8 3.8 0 0 0-2.064-2.075 3.8 3.8 0 0 0-2.819-.042l2.284.944a2.815 2.815 0 1 1-2.165 5.197M34.4 19.36a4.53 4.53 0 0 0-4.523-4.522 4.53 4.53 0 0 0-4.523 4.523 4.53 4.53 0 0 0 4.523 4.522 4.53 4.53 0 0 0 4.523-4.522m-7.913-.007a3.398 3.398 0 1 1 6.795 0 3.398 3.398 0 0 1-6.795 0"></path><path stroke="none" d="M23.938 6C14.482 6 6.736 13.29 6 22.557l9.648 3.988a5.06 5.06 0 0 1 3.151-.878l4.29-6.218v-.088a6.796 6.796 0 0 1 6.789-6.789 6.796 6.796 0 0 1 6.788 6.789 6.796 6.796 0 0 1-6.788 6.788q-.078.001-.154-.004l-6.12 4.367q.007.12.007.24a5.1 5.1 0 0 1-5.096 5.096 5.1 5.1 0 0 1-4.995-4.092l-6.9-2.85C8.756 36.46 15.698 42 23.938 42c9.941 0 18-8.06 18-18 0-9.941-8.059-18-18-18"></path></svg>