<svg xmlns="http://www.w3.org/2000/svg" fill="currentColor" stroke="currentColor" stroke-linecap="round" stroke-linejoin="round" stroke-width="0" aria-labelledby="blz-icon-title-xbox" viewBox="0 0 48 48" part="icon blz-icon"><title id="blz-icon-title-xbox">Xbox</title><path stroke="none" d="M11.3 11.191a18.13 18.13 0 0 0-1.658 23.71.08.08 0 0 0 .096.03.07.07 0 0 0 .02-.091C8.4 30.597 15.34 20.313 18.931 16.002a.1.1 0 0 0 .026-.053.08.08 0 0 0-.034-.059c-6.034-6.065-7.645-4.68-7.622-4.699m25.036-.001a18.13 18.13 0 0 1 1.656 23.71.08.08 0 0 1-.095.03.08.08 0 0 1-.02-.093c1.357-4.242-5.58-14.534-9.165-18.847a.1.1 0 0 1-.026-.05.08.08 0 0 1 .034-.06c6.036-6.068 7.637-4.67 7.616-4.69M23.82 6a17.43 17.43 0 0 1 9.28 2.635.066.066 0 0 1-.056.12c-3.45-.753-8.692 2.257-9.187 2.558a.056.056 0 0 1-.076 0c-1.315-.763-6.162-3.33-9.213-2.54a.07.07 0 0 1-.087-.032.07.07 0 0 1 .03-.09 17.4 17.4 0 0 1 9.31-2.65m0 14.436a.1.1 0 0 1 .056.028c5.332 4.1 14.457 14.225 11.67 17.084a17.67 17.67 0 0 1-23.456 0c-2.782-2.86 6.342-12.985 11.668-17.083a.1.1 0 0 1 .062-.03"></path></svg>